<svg width="512" height="512" viewBox="0 0 512 512" fill="none" xmlns="http://www.w3.org/2000/svg">
  <defs>
    <linearGradient id="bg" x1="76" y1="64" x2="436" y2="448" gradientUnits="userSpaceOnUse">
      <stop stop-color="#0B4D8B"/>
      <stop offset="1" stop-color="#1A7FB8"/>
    </linearGradient>
    <linearGradient id="accent" x1="164" y1="112" x2="354" y2="352" gradientUnits="userSpaceOnUse">
      <stop stop-color="#FFB34A"/>
      <stop offset="1" stop-color="#F26A21"/>
    </linearGradient>
    <filter id="shadow" x="30" y="38" width="452" height="452" filterUnits="userSpaceOnUse" color-interpolation-filters="sRGB">
      <feFlood flood-opacity="0" result="BackgroundImageFix"/>
      <feColorMatrix in="SourceAlpha" type="matrix" values="0 0 0 0 0 0 0 0 0 0 0 0 0 0 0 0 0 0 127 0" result="hardAlpha"/>
      <feOffset dy="18"/>
      <feGaussianBlur stdDeviation="18"/>
      <feColorMatrix type="matrix" values="0 0 0 0 0.0196 0 0 0 0 0.1529 0 0 0 0 0.2667 0 0 0 0.24 0"/>
      <feBlend mode="normal" in2="BackgroundImageFix" result="effect1_dropShadow_1_2"/>
      <feBlend mode="normal" in="SourceGraphic" in2="effect1_dropShadow_1_2" result="shape"/>
    </filter>
  </defs>
  <rect width="512" height="512" rx="120" fill="#EEF5F8"/>
  <g filter="url(#shadow)">
    <rect x="76" y="64" width="360" height="360" rx="88" fill="url(#bg)"/>
    <path d="M328 112L388 112L388 172L204 356L144 356L144 296L328 112Z" fill="url(#accent)"/>
    <circle cx="244" cy="244" r="86" fill="#F8FBFD" fill-opacity="0.96"/>
    <circle cx="244" cy="244" r="61" stroke="#0B4D8B" stroke-width="14"/>
    <path d="M244 244L302 197" stroke="#F26A21" stroke-width="18" stroke-linecap="round"/>
    <circle cx="244" cy="244" r="13" fill="#F26A21"/>
    <path d="M156 318L202 272" stroke="#9ED0E5" stroke-width="14" stroke-linecap="round"/>
    <path d="M286 216L356 146" stroke="#9ED0E5" stroke-width="14" stroke-linecap="round"/>
    <circle cx="156" cy="318" r="18" fill="#F8FBFD"/>
    <circle cx="156" cy="318" r="10" fill="#0B4D8B"/>
    <circle cx="356" cy="146" r="18" fill="#F8FBFD"/>
    <circle cx="356" cy="146" r="10" fill="#0B4D8B"/>
    <path d="M164 380C206 332 280 320 334 352" stroke="#F8FBFD" stroke-opacity="0.84" stroke-width="16" stroke-linecap="round"/>
  </g>
</svg>
